<?xml version="1.0" encoding="UTF-8"?>
<!DOCTYPE svg PUBLIC "-//W3C//DTD SVG 1.1//EN" "http://www.w3.org/Graphics/SVG/1.1/DTD/svg11.dtd">
<!-- Creator: CorelDRAW -->
<svg xmlns="http://www.w3.org/2000/svg" xml:space="preserve" width="12.4672in" height="9.13917in" version="1.1" style="shape-rendering:geometricPrecision; text-rendering:geometricPrecision; image-rendering:optimizeQuality; fill-rule:evenodd; clip-rule:evenodd"
viewBox="0 0 16143.92 11834.4"
 xmlns:xlink="http://www.w3.org/1999/xlink"
 xmlns:xodm="http://www.corel.com/coreldraw/odm/2003">
 <defs>
  <style type="text/css">
   <![CDATA[
    .fil0 {fill:#D2E28B}
    .fil19 {fill:#1AB055}
    .fil11 {fill:#15993B}
    .fil12 {fill:#1E99DF}
    .fil8 {fill:#299B49}
    .fil10 {fill:#3BA733}
    .fil9 {fill:#5AB22E}
    .fil13 {fill:#84C225}
    .fil14 {fill:#E5F1D5}
    .fil7 {fill:#ECAB0F}
    .fil20 {fill:#FEFEFE;fill-rule:nonzero}
    .fil15 {fill:#373435;fill-rule:nonzero}
    .fil3 {fill:#373435;fill-rule:nonzero}
    .fil2 {fill:#CE8F64;fill-rule:nonzero}
    .fil1 {fill:#00A859;fill-rule:nonzero}
    .fil17 {fill:#2F2E41;fill-rule:nonzero}
    .fil6 {fill:#3F3D56;fill-rule:nonzero}
    .fil4 {fill:#E6E6E6;fill-rule:nonzero}
    .fil16 {fill:#FFB8B8;fill-rule:nonzero}
    .fil5 {fill:white;fill-rule:nonzero}
    .fil18 {fill:black;fill-rule:nonzero;fill-opacity:0.200000}
   ]]>
  </style>
 </defs>
 <g id="Layer_x0020_1">
  <metadata id="CorelCorpID_0Corel-Layer"/>
  <g id="_2339932670304">
   <path class="fil0" d="M12608.37 6581.57c0,280.9 -74.93,631.58 -148.71,857.55 -45.93,140.67 -79.47,250.67 -134.51,382.23 -148.28,354.36 -341.97,652.31 -567.56,955.45l-423.67 473.82c-72.88,74.16 -21.41,-23.79 -58.18,77.8 431.41,0 765.24,-27.2 1196.65,-27.2l3671.53 -27.2 0 -870.29 -625.51 0c0,-794.31 129.67,-652.71 -516.74,-652.71l0 -380.75c-632.82,0 -496.63,42.77 -488.6,-243.84 8.85,-316.3 44.27,-272.9 -381.69,-272.9l0 -326.36 -843.09 0 0 -516.74 -679.92 0 0 571.13z"/>
   <path class="fil0" d="M3334.34 6527.18l-843.09 0 0 326.36 -353.55 0 0 516.74 -516.73 0 0 380.75c-646.4,0 -516.74,-141.6 -516.74,652.71l-625.52 0 0 870.29 3644.34 27.2c441.26,0 784.52,27.2 1223.84,27.2 -37.24,-139.5 -18.73,-10.36 -178.34,-202.41 -281.3,-338.46 -475.49,-512.12 -701.42,-957.58 -437.25,-862.07 -452.87,-1226.99 -452.87,-2157.99l-679.92 0 0 516.74z"/>
   <path class="fil0" d="M6217.18 8909.81c-114.49,-3.11 -12.14,-46.9 -150.6,104.28 -44.93,49.07 -77.76,74.25 -121.74,123.22 -74.48,82.9 -152.63,193.86 -238.52,251.39 41.18,50.61 6.08,0.9 39.31,75.72 -141.89,63.42 -3764.72,29.16 -4506.35,28.13 -212.77,-0.3 -437.52,-89.05 -570.2,26.27 688.67,0 1356.48,44.87 2040.83,53.31l3072.52 109.48c396.62,-3.27 271.11,78.91 772.38,288.29 499.73,208.75 1061.61,364.88 1756.51,364.88 699.08,0 1411.24,-168.88 1917.06,-421.9 64.12,-32.07 118.53,-63.69 177.57,-94.4 183.22,-95.33 107.1,-139.98 406.72,-137.21 382.59,3.53 661.62,-27.37 1034.84,-25.83l1025.4 -35.26c248.65,-34.08 1380.1,-34.8 1523.01,-54.39l1557.63 -46.96c-54.72,-74.69 -107.35,-64.73 -243.99,-55.44l-952.66 28.24c-1278.24,0 -2556.47,0 -3834.72,0 64.83,-96.81 193.43,-170.58 291.17,-252.76 77.57,-65.22 223.25,-211.2 284.02,-287.11 249.54,-311.78 247.44,-276.21 470.18,-644.88 834.3,-1380.86 673.83,-3039.56 -268.3,-4297.34 -125.89,-168.06 -399.09,-475.33 -559.51,-582.75 29.16,109.18 111.82,143.21 179.02,228.93 509.2,649.47 773.33,1332.47 801.58,2164.11 14.16,416.84 -127.02,1025.64 -284.76,1403.21 -143.52,343.54 -260.98,510.93 -466.25,784.79 -1019.57,1360.08 -3025.53,1829.29 -4589.25,1165.65l-490.07 -243.45c-72.44,-27.89 -26.94,-12.46 -72.85,-20.19z"/>
   <path class="fil0" d="M8338.37 6364l-54.21 -61.13c-5.39,-4.72 -16.62,-16.12 -27.11,-20.32 185.73,97.89 90.31,47.27 128.95,-0.13l-101.89 0c6.44,-289.36 333.31,-183.96 516.74,-271.97 -12.37,-148.53 -80.91,-159.75 -379.31,-134.6 -454.41,38.29 -359.69,33.02 -739.57,321.17 -108.88,82.6 -194.29,162.92 -376.94,166.99 38.53,-165.39 460.39,-608.26 672.74,-659.89l1176.63 -183.19 0 -1604.6 -1740.58 0 0 1577.4 -1658.99 0 0 1658.98c813.74,0 658.7,75.08 1309.19,-376.98 146.89,-102.08 357.62,-238.65 532.26,-313 114.33,-48.68 181.8,-14.51 362.54,-15.32 272.92,-1.22 150.08,-83.39 379.53,-83.39z"/>
   <path class="fil0" d="M8386.01 6282.41c-38.64,47.4 56.78,98.02 -128.95,0.13 10.48,4.2 21.72,15.6 27.11,20.32l54.21 61.13c-9.35,278.19 -326.3,180.66 -516.6,271.97 3.13,140.41 51.85,168.46 376.78,132.07 155.63,-17.42 304.99,-13.91 423.98,-92.83 229.79,-152.37 442.12,-387.77 667.86,-392.8 -8.2,98.48 -58.06,152.07 -115.15,211.2 -180.78,187.21 -301.64,402.63 -583.42,450.04 -169.99,28.6 -398.06,74.18 -580.9,99.02 -104.72,14.23 -172.9,22.34 -286.46,39.91 -113.5,17.56 -196.11,42.92 -310.64,42.92l0 1604.6 1740.58 0 0 -1577.41 1658.98 0 0 -1658.98c-842.87,0 -519.3,-101.03 -1014.83,209.01 -131.49,82.27 -615.59,415.78 -754.79,469.05 -230.29,88.16 -496.61,-67.8 -657.76,110.64z"/>
   <path class="fil0" d="M6407.55 1223.85l-652.71 0 0 489.54 -435.15 0 0 462.34 -543.93 0 0 353.56 -353.55 0 0 788.71 -543.93 0 0 761.5 -244.77 0 0 1087.86c804.34,0 380.27,147.22 883.91,-775.08 438.87,-803.7 1264.58,-1492.9 2098.6,-1872.1 72.84,-33.12 199.49,-70.14 199.49,-154.06l0 -1767.78 -407.95 0 0 625.52z"/>
   <path class="fil0" d="M9807.12 679.91l0 1686.19c0,103.35 259.24,171.08 421.45,258.46 844.1,454.72 1655.21,1187.56 2034.11,2072.57 243.52,568.8 30.4,470.21 726.43,470.21l0 -1087.86 -244.77 0 0 -761.5 -571.12 0c59.28,-105.52 27.2,-634.81 27.2,-788.71l-353.56 0 0 -353.56 -543.93 0 0 -462.34 -435.15 0 0 -489.54 -652.72 0 0 -625.52c-281,0 -407.95,-39.24 -407.95,81.59z"/>
   <path class="fil0" d="M8121.07 3263.59c1050.27,0 1783.12,234.03 2543.64,937.39 987.06,912.87 1254.68,2638.99 424.7,3826.07l-248.83 349.5c432.7,-289.74 883.37,-1116.45 1037.3,-1682.35 225.44,-828.75 66.38,-1773.55 -355.97,-2507.33 -324.78,-564.26 -642.47,-857.73 -1192.54,-1227.96 -587.44,-395.39 -1147.68,-510.36 -1826.13,-567.3 -112.13,-9.42 -55.79,-18.25 -143.54,-25.55 -157.52,-13.09 -139.74,27.98 -157.18,54.31l176.37 14.13 0.03 766.95 102.55 7.89c-115.34,0 -286.3,-34.47 -360.41,54.25z"/>
   <path class="fil0" d="M7232.53 3426.77c-99.97,-155.3 -43.33,-574.55 -43.44,-807.89l-74.44 -8.14c-128.25,-42.99 -320.44,76.14 -443.11,128.15l-384.1 214.22c-753.89,496.62 -1276.72,1116.93 -1539.06,2050.9 -94.47,336.31 -122.27,643.43 -109.52,1088.93 23.4,817.72 611.08,1954.27 1224.74,2365.2 -19.05,-71.35 -255.9,-310.36 -406.62,-572.47 -712.32,-1238.8 -501.49,-2657.83 522.14,-3690.66 557.02,-562.01 915.48,-575.75 1253.39,-768.24z"/>
   <path class="fil0" d="M5745.63 9464.41c-33.23,-74.81 1.87,-25.11 -39.31,-75.72 85.89,-57.52 164.04,-168.48 238.52,-251.39 43.99,-48.97 76.81,-74.15 121.74,-123.22 138.46,-151.18 36.11,-107.39 150.6,-104.28 -111.64,-146.3 -1374.34,-815.87 -1647.69,-2366.74 -179.91,-1020.7 25.1,-1942.35 609.95,-2739.82 114.74,-156.43 197.28,-202.93 221.84,-294.89 -337.94,226.29 -747.63,881.54 -934.11,1268.81 -592,1229.39 -411.57,2756.41 409.34,3852.17 122.89,164.03 662.58,793.45 869.11,835.06z"/>
   <path class="fil0" d="M15953.55 10361.89l-5168.47 -1.13c-246.22,-1.25 -227.24,39.84 -393.53,123.22 -115.52,57.92 -236.41,120.63 -350.77,165.96 -452.81,179.48 -744.15,249.18 -1227.51,322.69 -102.91,15.65 -149.46,11.62 -257.72,14.26 -133.92,3.27 -129.43,27.98 -244.23,27.98l-919.77 -113.97c-267,-67.36 -539.42,-139.29 -784.35,-249.11 -305.32,-136.89 -520.58,-292.45 -742.43,-291.05l-5195.69 1.14c70.57,96.32 197.06,55.33 462.43,54.31 215.57,-0.83 319.62,28.72 516.02,27.92 668.37,-2.74 1399.85,55.85 2068.21,53.12l1005.51 55.16c161.67,8.73 352.85,-0.09 517.5,-0.77 197.56,-0.81 299.6,29.7 516.11,27.82 476.29,-4.14 172.41,29.61 788.37,272.31 509.57,200.77 1107.5,337.65 1772.21,376.58 36.26,2.12 402.8,-18.73 481.82,-26.97 504.89,-52.69 1189.61,-238.31 1620.07,-501.25 170.93,-104.4 154.06,-123.67 422.9,-121.04 204.43,2.01 325.56,-22.81 489.04,-27.7 179.13,-5.36 365.87,4.2 545.9,1.97l1004.25 -56.41c172.71,-0.23 345.9,2.11 518.6,1.87 183.88,-0.25 302.1,-28.77 515.77,-28.16 356.64,1.03 653.35,-28.98 1033.86,-26.8 207.38,1.18 302.2,-28.84 516.2,-27.74 91.37,0.47 182.29,0.62 273.65,1.69 142.63,1.66 157.31,24.31 216.07,-55.9z"/>
   <path class="fil0" d="M15953.55 9872.36l-4976.98 0c-459.59,-0.3 -335.39,-11.15 -788.58,217.68 -1150.31,580.82 -2569.39,530.34 -3752.93,-0.41 -253.33,-113.61 -338.5,-214.96 -515.02,-219.28 -78.76,-1.93 -166.62,1.96 -246.78,2.01l-5004.17 0c104.93,91.2 225.17,54.46 462.34,54.4 468.43,-0.15 1091.56,54.48 1550.21,54.39 367.95,-0.07 651.86,28.13 1034.1,26.57l1007.06 53.6c151.54,12.54 358.52,2.06 515.49,1.25 214.24,-1.1 309.3,29.73 516.28,27.65 445.88,-4.49 189.17,6.86 789.39,271.28 458.26,201.9 1153.38,337.55 1769.88,380.82 432.5,30.36 1355.05,-191.7 1761.78,-356.7 100.06,-40.59 245.94,-109.68 345.95,-170.78 192.51,-117.59 112.79,-129.29 418.82,-125.12 208.42,2.84 294.28,-28.41 489.11,-27.61 178.39,0.73 368.37,6.82 545.46,1.52 667.82,-19.97 1327.67,-82.93 2038.85,-82.48 187.46,0.12 349,0.52 496.98,-19.77 175.23,-24.02 358.9,2.3 536.63,-7.3l790.08 -25.82c142.63,1.66 157.31,24.31 216.07,-55.9z"/>
   <path class="fil0" d="M8365.7 1930.95c148.78,-99.63 437.4,-507.69 843.09,-516.74l0 -1414.22 -135.98 0c-291.78,0 -695.22,314.68 -708.39,597.05 -19.7,422.42 1.28,904.64 1.28,1333.91z"/>
   <path class="fil0" d="M7413.83 1414.22c405.69,9.04 694.32,417.11 843.09,516.74 0,-432.28 10.28,-876.45 1.62,-1307.05 -2.51,-124.99 -23.68,-173.78 -77.77,-248.59 -183.22,-253.36 -438.86,-375.32 -766.94,-375.32l0 1414.22z"/>
   <path class="fil0" d="M7114.66 2610.74l74.44 8.14c0.1,233.34 -56.53,652.59 43.44,807.89 83.94,-8.13 128.57,-33.94 210.39,-52.31 81.08,-18.2 158.94,-37.25 222.88,-49.26 128.75,-24.19 328.77,-61.62 455.26,-61.62 74.11,-88.72 245.07,-54.25 360.41,-54.25l-102.55 -7.89 -0.03 -766.95 -176.37 -14.13c-202.13,-78.07 -927.76,62.77 -1035.45,139.52l-52.42 50.85z"/>
   <path class="fil0" d="M7114.66 353.56c0,1683.54 -102.47,1491.47 272.54,1495.23 405.66,4.07 713.92,272.67 815.32,299.74 -7.62,-342.26 -544.1,-679.91 -843.1,-679.91l0 -1115.06c0,-119.44 -244.77,-119.44 -244.77,0z"/>
   <path class="fil0" d="M9263.19 353.56l0 1115.06c-324.58,0 -843.09,357.43 -843.09,707.11 131.88,-88.31 190.61,-151.6 357,-214.12 344.76,-129.55 383.71,-112.23 730.86,-112.23l0 -1577.4c-175.01,0 -244.77,-24.16 -244.77,81.58z"/>
   <path class="fil0" d="M6869.89 2393.3c192.61,-44.87 351.87,-98.76 570.77,-136.35 209.03,-35.89 434.04,-26.83 680.27,-26.83 -48.11,-132.89 -340.07,-205.4 -467.42,-239.69 -131.29,-35.35 -511.29,-111.85 -620.44,-59.48l0 -1278.23 -163.18 0 0 1740.58z"/>
   <path class="fil0" d="M9589.55 1930.95c-139.78,-67.07 -665.07,53.19 -861.59,144.69 -195.26,90.92 -196.12,71.19 -226.27,154.48 372.47,0 934.41,11.25 1251.04,163.18l0 -1740.58 -163.18 0 0 1278.23z"/>
   <polygon class="fil0" points="11139.75,3426.77 11139.75,3399.57 11108.03,3422.24 "/>
  </g>
  <path class="fil1" d="M964.41 6693.15l46.8 -72.32c-13.74,-38.11 -30.03,-75.97 -48.03,-112.37l-30.26 24.44 23.96 -37.03c-22.83,-44.95 -40.8,-73.27 -40.8,-73.27 0,0 -93.86,147.91 -125.21,304.5l60.06 92.81 -66.48 -53.7c-2.35,18.21 -3.58,36.63 -3.63,55 0,185.46 60.57,335.81 135.29,335.81 74.72,0 135.29,-150.35 135.29,-335.81 -1.32,-58.93 -11.9,-117.52 -30.94,-173.29l-56.04 45.25z"/>
  <path class="fil1" d="M1295.66 6853.94l84.24 -18.05c17.27,-36.74 32.5,-74.87 45.47,-113.39l-38.68 -4.11 43.13 -9.24c15.64,-47.93 22.96,-80.66 22.96,-80.66 0,0 -170.95,38.22 -303.86,126.77l-23.16 108.09 -9.04 -84.98c-14.45,11.17 -28.43,23.38 -41.44,36.29 -131.14,131.14 -194.62,280.29 -141.79,333.12 52.84,52.83 201.98,-10.64 333.12,-141.79 40.72,-42.66 74.71,-91.45 100.65,-144.41l-71.59 -7.64z"/>
  <path class="fil2" d="M1326.43 7571.59c-195.33,12.5 -408.17,-0.73 -634.59,0l0 -518.39c199.51,31.06 412.28,27.87 634.59,0l0 518.39z"/>
  <rect class="fil3" x="6757.78" y="7734.3" width="2637.18" height="3420.09"/>
  <rect class="fil3" x="1249.91" y="7912.85" width="137.35" height="3241.53"/>
  <rect class="fil3" y="7500.8" width="9394.95" height="274.7"/>
  <rect class="fil3" x="1181.24" y="7775.5" width="274.7" height="274.7"/>
  <polygon class="fil3" points="10632.18,9497.4 10616.72,9559.22 10232.13,9559.22 10208.96,9497.4 9229.45,9497.4 9229.45,10129.24 11619.4,10129.24 11619.4,9497.4 "/>
  <polygon class="fil2" points="8284.11,8730.1 8268.66,8791.91 7884.07,8791.91 7860.89,8730.1 6881.39,8730.1 6881.39,9361.92 9271.33,9361.92 9271.33,8730.1 "/>
  <polygon class="fil2" points="8284.11,9526.76 8268.66,9588.56 7884.07,9588.56 7860.89,9526.76 6881.39,9526.76 6881.39,10158.58 9271.33,10158.58 9271.33,9526.76 "/>
  <polygon class="fil2" points="8284.11,10323.41 8268.66,10385.21 7884.07,10385.21 7860.89,10323.41 6881.39,10323.41 6881.39,10955.23 9271.33,10955.23 9271.33,10323.41 "/>
  <polygon class="fil3" points="5095.81,7459.58 4285.42,7459.58 4312.89,7102.47 5068.33,7102.47 "/>
  <rect class="fil4" x="4244.21" y="7418.38" width="906.53" height="82.41"/>
  <path class="fil3" d="M6242.7 4801.81l-3097.31 0c-45.5,0.01 -82.41,36.92 -82.41,82.42l-0.01 1888.6 3262.13 0 0 -1888.6c-0.01,-45.5 -36.91,-82.41 -82.42,-82.41l0.01 -0.01z"/>
  <path class="fil3" d="M3062.98 6772.82l0 309.04c0.01,45.5 36.92,82.41 82.42,82.41l3097.3 0.01c45.5,-0.01 82.41,-36.91 82.41,-82.42l0.01 -309.04 -3262.14 0z"/>
  <rect class="fil5" x="3227.8" y="4973.5" width="2939.36" height="1648.24"/>
  <circle class="fil6" cx="4697.48" cy="6965.12" r="82.41"/>
  <path class="fil3" d="M11668.15 11133.79c-300.18,19.2 -627.26,-1.12 -975.21,0l0 -796.65c306.6,47.73 633.57,42.83 975.21,0l0 796.65z"/>
  <polygon class="fil2" points="11214.89,10408.67 11132.47,10408.67 11159.94,8798.79 11187.41,8798.79 "/>
  <polygon class="fil2" points="11585.74,10419.56 11503.32,10419.56 11530.8,8809.66 11558.27,8809.66 "/>
  <polygon class="fil2" points="10885.23,10419.56 10802.82,10419.56 10830.3,8809.66 10857.76,8809.66 "/>
  <path class="fil1" d="M11283.56 7768.63l133.03 -205.6c-39.09,-108.71 -85.38,-215.95 -136.55,-319.44l-86.02 69.48 68.12 -105.27c-64.91,-127.78 -115.99,-208.29 -115.99,-208.29 0,0 -266.81,420.44 -355.95,865.6l170.78 263.77 -188.99 -152.65c-6.72,51.82 -10.22,104.2 -10.37,156.42 0,527.21 172.19,954.6 384.59,954.6 212.4,0 384.59,-427.39 384.59,-954.6 0,-163.44 -36.98,-334.44 -87.98,-492.62l-159.24 128.59z"/>
  <g id="_2339932615920">
   <path class="fil7" d="M11087.32 5268.36c0,65.38 -17.44,146.99 -34.61,199.58 -10.69,32.73 -18.5,58.34 -31.31,88.95 -34.51,82.47 -79.58,151.81 -132.09,222.36l-98.6 110.27c-16.96,17.26 -4.98,-5.54 -13.54,18.1 100.4,0 178.09,-6.33 278.49,-6.33l854.46 -6.33 0 -202.54 -145.57 0c0,-184.86 30.18,-151.9 -120.26,-151.9l0 -88.61c-147.28,0 -115.58,9.95 -113.71,-56.75 2.06,-73.62 10.3,-63.51 -88.83,-63.51l0 -75.95 -196.21 0 0 -120.26 -158.24 0 0 132.91z"/>
   <path class="fil7" d="M8929.01 5255.71l-196.21 0 0 75.95 -82.28 0 0 120.26 -120.26 0 0 88.61c-150.43,0 -120.26,-32.95 -120.26,151.9l-145.58 0 0 202.54 848.14 6.33c102.69,0 182.58,6.33 284.82,6.33 -8.67,-32.46 -4.35,-2.41 -41.5,-47.11 -65.46,-78.77 -110.66,-119.18 -163.24,-222.85 -101.76,-200.63 -105.39,-285.55 -105.39,-502.22l-158.23 0 0 120.26z"/>
   <path class="fil8" d="M9599.92 5810.21c-26.64,-0.73 -2.82,-10.92 -35.05,24.27 -10.46,11.42 -18.09,17.28 -28.33,28.68 -17.33,19.29 -35.52,45.12 -55.51,58.5 9.58,11.78 1.42,0.21 9.15,17.62 -33.02,14.76 -876.15,6.79 -1048.75,6.55 -49.52,-0.07 -101.82,-20.72 -132.7,6.11 160.27,0 315.69,10.44 474.96,12.4l715.06 25.48c92.3,-0.76 63.09,18.36 179.75,67.09 116.3,48.58 247.06,84.92 408.78,84.92 162.69,0 328.43,-39.3 446.15,-98.18 14.92,-7.46 27.59,-14.83 41.32,-21.97 42.64,-22.19 24.92,-32.58 94.66,-31.93 89.04,0.82 153.97,-6.37 240.83,-6.02l238.64 -8.2c57.86,-7.93 321.18,-8.1 354.44,-12.66l362.5 -10.93c-12.73,-17.38 -24.99,-15.06 -56.78,-12.9l-221.71 6.57c-297.48,0 -594.96,0 -892.44,0 15.09,-22.53 45.02,-39.7 67.76,-58.82 18.05,-15.18 51.96,-49.16 66.1,-66.82 58.07,-72.56 57.58,-64.28 109.42,-150.08 194.16,-321.37 156.82,-707.39 -62.44,-1000.11 -29.3,-39.11 -92.88,-110.62 -130.21,-135.62 6.79,25.41 26.03,33.33 41.67,53.27 118.5,151.15 179.97,310.11 186.55,503.65 3.29,97.01 -29.56,238.7 -66.27,326.57 -33.4,79.95 -60.74,118.91 -108.51,182.64 -237.28,316.53 -704.12,425.72 -1068.04,271.28l-114.05 -56.66c-16.86,-6.49 -6.27,-2.9 -16.95,-4.7z"/>
   <path class="fil9" d="M10093.59 5217.73l-12.62 -14.22c-1.25,-1.1 -3.87,-3.75 -6.31,-4.73 43.23,22.78 21.02,11 30.01,-0.03l-23.71 0c1.5,-67.34 77.57,-42.81 120.26,-63.29 -2.88,-34.57 -18.83,-37.18 -88.27,-31.33 -105.75,8.91 -83.72,7.68 -172.12,74.74 -25.34,19.22 -45.21,37.91 -87.72,38.86 8.97,-38.49 107.15,-141.56 156.56,-153.57l273.83 -42.64 0 -373.43 -405.08 0 0 367.11 -386.09 0 0 386.09c189.38,0 153.3,17.48 304.69,-87.73 34.18,-23.76 83.23,-55.54 123.87,-72.85 26.61,-11.33 42.31,-3.37 84.37,-3.56 63.52,-0.28 34.93,-19.41 88.33,-19.41z"/>
   <path class="fil10" d="M10104.67 5198.74c-8.99,11.03 13.21,22.81 -30.01,0.03 2.44,0.98 5.06,3.63 6.31,4.73l12.62 14.22c-2.18,64.75 -75.94,42.04 -120.23,63.3 0.72,32.67 12.07,39.2 87.69,30.74 36.22,-4.06 70.98,-3.24 98.67,-21.61 53.48,-35.46 102.89,-90.25 155.43,-91.41 -1.91,22.92 -13.51,35.39 -26.8,49.15 -42.07,43.57 -70.2,93.7 -135.78,104.74 -39.56,6.65 -92.64,17.26 -135.19,23.04 -24.37,3.31 -40.24,5.2 -66.66,9.29 -26.42,4.09 -45.64,9.99 -72.3,9.99l0 373.43 405.08 0 0 -367.11 386.09 0 0 -386.09c-196.16,0 -120.85,-23.51 -236.18,48.64 -30.6,19.15 -143.27,96.76 -175.66,109.16 -53.6,20.52 -115.57,-15.78 -153.08,25.75z"/>
   <path class="fil7" d="M9644.23 4021.48l-151.91 0 0 113.93 -101.27 0 0 107.6 -126.59 0 0 82.28 -82.28 0 0 183.55 -126.59 0 0 177.22 -56.97 0 0 253.17c187.19,0 88.5,34.26 205.71,-180.38 102.13,-187.04 294.3,-347.44 488.4,-435.69 16.95,-7.71 46.43,-16.32 46.43,-35.85l0 -411.41 -94.94 0 0 145.58z"/>
   <path class="fil7" d="M10435.4 3894.89l0 392.42c0,24.05 60.33,39.81 98.08,60.15 196.44,105.83 385.21,276.38 473.39,482.34 56.68,132.38 7.08,109.43 169.06,109.43l0 -253.17 -56.97 0 0 -177.22 -132.92 0c13.8,-24.56 6.33,-147.74 6.33,-183.55l-82.28 0 0 -82.28 -126.59 0 0 -107.6 -101.27 0 0 -113.93 -151.9 0 0 -145.58c-65.4,0 -94.94,-9.14 -94.94,18.99z"/>
   <path class="fil9" d="M10043.01 4496.18c244.43,0 414.98,54.46 591.97,218.15 229.71,212.45 292,614.16 98.84,890.43l-57.91 81.34c100.7,-67.43 205.58,-259.83 241.41,-391.53 52.46,-192.87 15.45,-412.75 -82.85,-583.53 -75.58,-131.32 -149.52,-199.61 -277.53,-285.78 -136.71,-92.02 -267.09,-118.77 -424.99,-132.02 -26.1,-2.19 -12.98,-4.25 -33.4,-5.95 -36.66,-3.04 -32.52,6.51 -36.58,12.64l41.05 3.29 0.01 178.49 23.86 1.84c-26.84,0 -66.63,-8.02 -83.87,12.63z"/>
   <path class="fil11" d="M9836.23 4534.16c-23.26,-36.14 -10.08,-133.71 -10.11,-188.02l-17.32 -1.9c-29.84,-10 -74.57,17.72 -103.12,29.82l-89.39 49.85c-175.45,115.58 -297.13,259.94 -358.18,477.3 -21.98,78.27 -28.45,149.75 -25.49,253.43 5.44,190.31 142.22,454.81 285.03,550.45 -4.43,-16.61 -59.56,-72.23 -94.63,-133.23 -165.77,-288.3 -116.71,-618.54 121.52,-858.91 129.63,-130.8 213.06,-133.99 291.7,-178.79z"/>
   <path class="fil9" d="M9490.18 5939.28c-7.73,-17.42 0.43,-5.84 -9.15,-17.62 19.99,-13.38 38.18,-39.21 55.51,-58.5 10.24,-11.4 17.87,-17.26 28.33,-28.68 32.22,-35.19 8.41,-25 35.05,-24.27 -25.98,-34.05 -319.84,-189.88 -383.46,-550.81 -41.87,-237.54 5.84,-452.04 141.95,-637.63 26.7,-36.41 45.91,-47.22 51.63,-68.63 -78.65,52.67 -174,205.16 -217.4,295.29 -137.78,286.11 -95.78,641.49 95.27,896.5 28.6,38.17 154.2,184.66 202.27,194.34z"/>
   <path class="fil12" d="M11865.84 6148.14l-1202.84 -0.26c-57.3,-0.29 -52.89,9.27 -91.59,28.67 -26.88,13.48 -55.02,28.08 -81.64,38.62 -105.38,41.77 -173.18,57.99 -285.68,75.1 -23.95,3.64 -34.78,2.7 -59.97,3.32 -31.17,0.76 -30.12,6.52 -56.84,6.52l-214.05 -26.53c-62.14,-15.68 -125.54,-32.42 -182.54,-57.98 -71.06,-31.86 -121.15,-68.06 -172.78,-67.73l-1209.18 0.27c16.43,22.42 45.86,12.88 107.62,12.64 50.17,-0.19 74.39,6.68 120.09,6.5 155.55,-0.64 325.78,12.99 481.33,12.36l234.01 12.84c37.63,2.03 82.12,-0.02 120.44,-0.18 45.98,-0.19 69.73,6.91 120.12,6.47 110.84,-0.97 40.12,6.89 183.47,63.37 118.59,46.73 257.75,78.58 412.44,87.64 8.44,0.49 93.74,-4.35 112.13,-6.28 117.5,-12.26 276.86,-55.46 377.03,-116.65 39.78,-24.3 35.85,-28.78 98.42,-28.17 47.58,0.47 75.77,-5.31 113.81,-6.44 41.69,-1.25 85.15,0.98 127.04,0.46l233.72 -13.13c40.19,-0.06 80.5,0.49 120.69,0.43 42.8,-0.06 70.31,-6.69 120.03,-6.55 83,0.23 152.06,-6.74 240.61,-6.24 48.26,0.28 70.33,-6.71 120.13,-6.45 21.26,0.11 42.43,0.14 63.69,0.39 33.2,0.39 36.61,5.65 50.29,-13.01z"/>
   <path class="fil12" d="M11865.84 6034.22l-1158.28 0c-106.96,-0.07 -78.06,-2.59 -183.53,50.66 -267.7,135.17 -597.96,123.42 -873.41,-0.1 -58.96,-26.44 -78.78,-50.03 -119.86,-51.03 -18.33,-0.45 -38.78,0.45 -57.43,0.47l-1164.61 0c24.42,21.22 52.41,12.67 107.6,12.66 109.02,-0.04 254.04,12.68 360.78,12.66 85.63,-0.02 151.71,6.54 240.66,6.18l234.37 12.47c35.27,2.92 83.44,0.48 119.97,0.29 49.86,-0.25 71.98,6.92 120.16,6.43 103.77,-1.05 44.02,1.6 183.71,63.13 106.65,46.99 268.42,78.56 411.9,88.62 100.65,7.07 315.36,-44.61 410.01,-83.01 23.29,-9.44 57.24,-25.53 80.51,-39.74 44.8,-27.37 26.25,-30.09 97.47,-29.12 48.5,0.66 68.49,-6.61 113.83,-6.43 41.51,0.17 85.73,1.59 126.94,0.36 155.42,-4.65 308.98,-19.3 474.49,-19.19 43.63,0.03 81.22,0.12 115.66,-4.6 40.78,-5.59 83.53,0.54 124.89,-1.7l183.87 -6.01c33.2,0.39 36.61,5.66 50.29,-13.01z"/>
   <path class="fil11" d="M10099.94 4186.04c34.63,-23.19 101.79,-118.15 196.21,-120.26l0 -329.13 -31.64 0c-67.91,0 -161.8,73.23 -164.86,138.95 -4.58,98.31 0.3,210.53 0.3,310.44z"/>
   <path class="fil13" d="M9878.42 4065.78c94.42,2.11 161.59,97.07 196.21,120.26 0,-100.6 2.4,-203.97 0.38,-304.19 -0.59,-29.08 -5.51,-40.44 -18.1,-57.85 -42.64,-58.96 -102.13,-87.35 -178.49,-87.35l0 329.13z"/>
   <path class="fil10" d="M9808.79 4344.24l17.32 1.9c0.03,54.3 -13.15,151.88 10.11,188.02 19.54,-1.89 29.92,-7.9 48.97,-12.17 18.87,-4.23 36.99,-8.67 51.87,-11.47 29.96,-5.63 76.51,-14.34 105.95,-14.34 17.25,-20.65 57.03,-12.63 83.87,-12.63l-23.86 -1.84 -0.01 -178.49 -41.05 -3.29c-47.04,-18.17 -215.91,14.61 -240.98,32.47l-12.2 11.83z"/>
   <path class="fil11" d="M9808.79 3818.94c0,391.8 -23.84,347.1 63.43,347.98 94.41,0.95 166.15,63.46 189.75,69.76 -1.77,-79.65 -126.63,-158.23 -196.21,-158.23l0 -259.5c0,-27.8 -56.97,-27.8 -56.97,0z"/>
   <path class="fil13" d="M10308.82 3818.94l0 259.5c-75.54,0 -196.21,83.19 -196.21,164.57 30.7,-20.55 44.36,-35.28 83.08,-49.83 80.24,-30.15 89.3,-26.12 170.09,-26.12l0 -367.11c-40.73,0 -56.96,-5.62 -56.96,18.99z"/>
   <path class="fil13" d="M9751.83 4293.64c44.83,-10.44 81.89,-22.99 132.84,-31.73 48.65,-8.35 101.01,-6.25 158.32,-6.25 -11.2,-30.92 -79.14,-47.8 -108.78,-55.78 -30.56,-8.22 -118.99,-26.03 -144.39,-13.84l0 -297.48 -37.98 0 0 405.08z"/>
   <path class="fil11" d="M10384.77 4186.04c-32.53,-15.61 -154.78,12.38 -200.52,33.67 -45.44,21.16 -45.64,16.57 -52.66,35.95 86.68,0 217.46,2.62 291.15,37.98l0 -405.08 -37.98 0 0 297.48z"/>
   <polygon class="fil14" points="10745.54,4534.16 10745.54,4527.82 10738.16,4533.1 "/>
   <path class="fil15" d="M8467.42 6773.5l0 -360.56 153.34 0c38.52,0 66.56,3.27 84.01,9.74 17.54,6.46 31.48,17.96 41.97,34.49 10.49,16.62 15.78,35.5 15.78,56.82 0,27.11 -7.89,49.44 -23.75,67.06 -15.87,17.63 -39.53,28.71 -71.09,33.32 15.69,9.15 28.62,19.22 38.77,30.22 10.24,10.99 24.01,30.55 41.29,58.58l43.98 70.33 -87.03 0 -52.2 -78.72c-18.72,-27.95 -31.56,-45.58 -38.53,-52.88 -6.88,-7.22 -14.18,-12.26 -21.91,-14.94 -7.81,-2.69 -20.06,-4.03 -36.84,-4.03l-14.77 0 0 150.57 -73.02 0zm73.02 -207.98l53.88 0c34.91,0 56.65,-1.51 65.38,-4.45 8.64,-2.94 15.52,-8.05 20.39,-15.27 4.95,-7.22 7.39,-16.28 7.39,-27.11 0,-12.17 -3.27,-21.91 -9.74,-29.46 -6.46,-7.47 -15.61,-12.17 -27.36,-14.1 -5.96,-0.84 -23.67,-1.26 -53.13,-1.26l-56.82 0 0 91.65z"/>
   <path id="_1" class="fil15" d="M8811.95 6656.68l71.01 -7.05c4.28,23.75 12.84,41.12 25.85,52.29 13.01,11.16 30.55,16.7 52.62,16.7 23.33,0 40.96,-4.95 52.79,-14.86 11.83,-9.9 17.79,-21.48 17.79,-34.74 0,-8.56 -2.52,-15.78 -7.47,-21.82 -4.95,-5.96 -13.68,-11.16 -26.1,-15.52 -8.48,-3.02 -27.78,-8.23 -58,-15.78 -38.86,-9.73 -66.14,-21.65 -81.83,-35.83 -22.07,-19.89 -33.07,-44.15 -33.07,-72.77 0,-18.38 5.21,-35.67 15.53,-51.7 10.41,-16.03 25.35,-28.2 44.9,-36.59 19.55,-8.39 43.05,-12.59 70.75,-12.59 45.07,0 79.06,9.99 101.81,30.05 22.82,20.06 34.74,46.74 35.92,80.23l-73.02 2.52c-3.1,-18.63 -9.74,-31.98 -19.89,-40.12 -10.16,-8.14 -25.43,-12.26 -45.74,-12.26 -20.98,0 -37.44,4.36 -49.27,13.09 -7.64,5.62 -11.5,13.1 -11.5,22.5 0,8.56 3.61,15.86 10.82,21.9 9.15,7.81 31.39,15.87 66.72,24.26 35.33,8.31 61.44,17.04 78.31,25.93 16.96,8.98 30.22,21.15 39.79,36.68 9.57,15.52 14.35,34.66 14.35,57.4 0,20.65 -5.7,40.04 -17.21,58.08 -11.5,18.04 -27.7,31.47 -48.68,40.2 -20.98,8.81 -47.17,13.18 -78.47,13.18 -45.58,0 -80.57,-10.49 -105,-31.56 -24.42,-20.98 -38.94,-51.62 -43.73,-91.82z"/>
   <path id="_2" class="fil15" d="M9166.98 6412.94l73.02 0 0 195.39c0,31.05 0.92,51.11 2.68,60.26 3.11,14.77 10.41,26.69 21.99,35.59 11.66,8.98 27.53,13.43 47.67,13.43 20.39,0 35.83,-4.2 46.24,-12.67 10.41,-8.48 16.61,-18.8 18.72,-31.14 2.1,-12.34 3.19,-32.73 3.19,-61.27l0 -199.58 73.01 0 0 189.6c0,43.31 -1.93,73.94 -5.87,91.82 -3.95,17.88 -11.16,32.98 -21.74,45.32 -10.49,12.34 -24.59,22.07 -42.22,29.38 -17.71,7.31 -40.7,11 -69.16,11 -34.33,0 -60.35,-3.95 -78.06,-11.92 -17.71,-7.97 -31.73,-18.3 -42.05,-31.05 -10.32,-12.76 -17.04,-26.02 -20.31,-40.04 -4.78,-20.65 -7.13,-51.19 -7.13,-91.57l0 -192.53z"/>
   <path id="_3" class="fil15" d="M9530.64 6412.94l132.77 0c29.97,0 52.79,2.26 68.49,6.88 21.07,6.21 39.19,17.29 54.22,33.23 15.11,15.87 26.52,35.33 34.41,58.42 7.81,22.99 11.75,51.44 11.75,85.18 0,29.71 -3.7,55.23 -11.08,76.72 -8.98,26.27 -21.82,47.5 -38.53,63.7 -12.59,12.34 -29.62,21.91 -51.03,28.79 -16.03,5.12 -37.44,7.64 -64.29,7.64l-136.72 0 0 -360.56zm73.02 60.93l0 238.7 54.13 0c20.23,0 34.83,-1.18 43.81,-3.44 11.83,-2.94 21.57,-7.97 29.29,-15.02 7.81,-7.05 14.1,-18.63 18.96,-34.75 4.95,-16.11 7.39,-38.18 7.39,-66.05 0,-27.87 -2.44,-49.18 -7.39,-64.12 -4.87,-14.94 -11.75,-26.52 -20.56,-34.91 -8.81,-8.31 -19.97,-14.02 -33.57,-16.96 -10.07,-2.26 -29.97,-3.44 -59.51,-3.44l-32.56 0z"/>
   <polygon id="_4" class="fil15" points="10083.74,6773.5 9998.97,6412.94 10074,6412.94 10127.63,6660.62 10193.43,6412.94 10280.22,6412.94 10343.16,6664.81 10398.05,6412.94 10471.32,6412.94 10384.46,6773.5 10306.49,6773.5 10235.4,6503.92 10163.81,6773.5 "/>
   <path id="_5" class="fil15" d="M10806.54 6773.5l-78.64 0 -31.14 -82.08 -144.61 0 -29.96 82.08 -77.22 0 139.99 -360.56 77.13 0 144.44 360.56zm-133.45 -143.02l-50.1 -133.45 -48.68 133.45 98.79 0z"/>
   <polygon id="_6" class="fil15" points="10847.41,6773.5 10847.41,6415.97 10920.43,6415.97 10920.43,6712.57 11101.21,6712.57 11101.21,6773.5 "/>
   <polygon id="_7" class="fil15" points="11153,6773.5 11153,6412.94 11419.89,6412.94 11419.89,6473.88 11226.02,6473.88 11226.02,6553.95 11406.3,6553.95 11406.3,6614.88 11226.02,6614.88 11226.02,6712.57 11426.95,6712.57 11426.95,6773.5 "/>
   <path id="_8" class="fil15" d="M11488.89 6412.94l132.77 0c29.97,0 52.79,2.26 68.49,6.88 21.07,6.21 39.19,17.29 54.22,33.23 15.11,15.87 26.52,35.33 34.41,58.42 7.81,22.99 11.75,51.44 11.75,85.18 0,29.71 -3.7,55.23 -11.08,76.72 -8.98,26.27 -21.82,47.5 -38.53,63.7 -12.59,12.34 -29.62,21.91 -51.03,28.79 -16.03,5.12 -37.44,7.64 -64.29,7.64l-136.72 0 0 -360.56zm73.02 60.93l0 238.7 54.13 0c20.23,0 34.83,-1.18 43.81,-3.44 11.83,-2.94 21.57,-7.97 29.29,-15.02 7.81,-7.05 14.1,-18.63 18.96,-34.75 4.95,-16.11 7.39,-38.18 7.39,-66.05 0,-27.87 -2.44,-49.18 -7.39,-64.12 -4.87,-14.94 -11.75,-26.52 -20.56,-34.91 -8.81,-8.31 -19.97,-14.02 -33.57,-16.96 -10.07,-2.26 -29.97,-3.44 -59.51,-3.44l-32.56 0z"/>
   <path class="fil15" d="M8470.9 7003.08l0 -124.39 52.9 0c13.29,0 22.96,1.13 28.98,3.36 6.05,2.23 10.86,6.19 14.48,11.9 3.62,5.74 5.44,12.25 5.44,19.6 0,9.35 -2.72,17.05 -8.2,23.14 -5.47,6.08 -13.64,9.9 -24.52,11.5 5.41,3.16 9.87,6.63 13.38,10.42 3.53,3.79 8.28,10.54 14.24,20.21l15.17 24.26 -30.02 0 -18.01 -27.16c-6.46,-9.65 -10.89,-15.72 -13.29,-18.24 -2.38,-2.49 -4.89,-4.23 -7.56,-5.15 -2.7,-0.93 -6.92,-1.39 -12.71,-1.39l-5.09 0 0 51.94 -25.19 0zm25.19 -71.75l18.59 0c12.05,0 19.55,-0.52 22.55,-1.53 2.98,-1.01 5.36,-2.78 7.04,-5.27 1.71,-2.49 2.55,-5.62 2.55,-9.35 0,-4.2 -1.13,-7.56 -3.36,-10.16 -2.23,-2.58 -5.38,-4.2 -9.44,-4.87 -2.05,-0.29 -8.17,-0.43 -18.33,-0.43l-19.6 0 0 31.62z"/>
   <path id="_1_0" class="fil15" d="M8598.79 6878.69l25.19 0 0 67.41c0,10.71 0.32,17.63 0.93,20.79 1.07,5.09 3.59,9.21 7.59,12.28 4.02,3.09 9.49,4.63 16.45,4.63 7.04,0 12.36,-1.45 15.95,-4.37 3.59,-2.93 5.73,-6.48 6.45,-10.74 0.72,-4.26 1.1,-11.29 1.1,-21.14l0 -68.85 25.19 0 0 65.41c0,14.94 -0.66,25.51 -2.02,31.67 -1.36,6.17 -3.85,11.38 -7.5,15.64 -3.62,4.26 -8.48,7.62 -14.57,10.13 -6.11,2.52 -14.04,3.79 -23.86,3.79 -11.84,0 -20.82,-1.36 -26.93,-4.11 -6.11,-2.75 -10.95,-6.32 -14.5,-10.72 -3.56,-4.4 -5.88,-8.98 -7.01,-13.81 -1.65,-7.12 -2.46,-17.66 -2.46,-31.59l0 -66.42z"/>
   <polygon id="_2_1" class="fil15" points="8726.32,7003.08 8726.32,6878.69 8764.06,6878.69 8786.35,6963.52 8808.38,6878.69 8846.2,6878.69 8846.2,7003.08 8822.92,7003.08 8822.83,6905.15 8798.31,7003.08 8774.1,7003.08 8749.69,6905.15 8749.61,7003.08 "/>
   <path id="_3_2" class="fil15" d="M8985.87 7003.08l-27.13 0 -10.75 -28.32 -49.88 0 -10.34 28.32 -26.64 0 48.29 -124.39 26.61 0 49.83 124.39zm-46.04 -49.34l-17.29 -46.04 -16.79 46.04 34.08 0z"/>
   <polygon id="_4_3" class="fil15" points="9001.71,7003.08 9001.71,6878.69 9026.9,6878.69 9026.9,6927.68 9075.89,6927.68 9075.89,6878.69 9101.08,6878.69 9101.08,7003.08 9075.89,7003.08 9075.89,6948.7 9026.9,6948.7 9026.9,7003.08 "/>
   <path id="_5_4" class="fil15" d="M9171.27 6962.77l24.5 -2.43c1.47,8.19 4.43,14.19 8.92,18.04 4.49,3.85 10.54,5.77 18.15,5.77 8.05,0 14.13,-1.71 18.21,-5.13 4.08,-3.42 6.14,-7.41 6.14,-11.99 0,-2.95 -0.87,-5.44 -2.57,-7.53 -1.71,-2.05 -4.72,-3.85 -9,-5.35 -2.93,-1.05 -9.58,-2.84 -20.01,-5.44 -13.41,-3.36 -22.81,-7.47 -28.23,-12.36 -7.61,-6.86 -11.4,-15.23 -11.4,-25.1 0,-6.34 1.79,-12.31 5.35,-17.84 3.59,-5.53 8.75,-9.73 15.49,-12.62 6.74,-2.9 14.86,-4.34 24.41,-4.34 15.55,0 27.27,3.45 35.12,10.36 7.88,6.92 11.99,16.13 12.39,27.68l-25.19 0.87c-1.07,-6.43 -3.36,-11.03 -6.86,-13.84 -3.51,-2.81 -8.77,-4.23 -15.78,-4.23 -7.24,0 -12.91,1.5 -17,4.52 -2.63,1.94 -3.97,4.52 -3.97,7.76 0,2.96 1.25,5.48 3.74,7.56 3.16,2.69 10.83,5.47 23.02,8.37 12.19,2.87 21.2,5.88 27.01,8.95 5.85,3.1 10.43,7.3 13.72,12.65 3.3,5.36 4.96,11.95 4.96,19.81 0,7.12 -1.97,13.81 -5.94,20.04 -3.97,6.22 -9.55,10.86 -16.79,13.87 -7.24,3.04 -16.27,4.55 -27.07,4.55 -15.72,0 -27.8,-3.62 -36.22,-10.88 -8.43,-7.24 -13.44,-17.81 -15.09,-31.68z"/>
   <path id="_6_5" class="fil15" d="M9408.23 7003.08l-27.13 0 -10.75 -28.32 -49.88 0 -10.34 28.32 -26.64 0 48.29 -124.39 26.61 0 49.83 124.39zm-46.04 -49.34l-17.29 -46.04 -16.79 46.04 34.08 0z"/>
   <polygon id="_7_6" class="fil15" points="9424.41,7003.08 9424.41,6878.69 9449.6,6878.69 9449.6,6933.79 9500.36,6878.69 9534.12,6878.69 9487.19,6927.13 9536.55,7003.08 9504.07,7003.08 9469.84,6944.67 9449.6,6965.46 9449.6,7003.08 "/>
   <polygon id="_8_7" class="fil15" points="9551.09,7003.08 9551.09,6878.69 9576.27,6878.69 9576.27,7003.08 "/>
   <polygon id="_9" class="fil15" points="9630.63,7003.08 9630.63,6899.71 9593.8,6899.71 9593.8,6878.69 9692.47,6878.69 9692.47,6899.71 9655.81,6899.71 9655.81,7003.08 "/>
   <path id="_10" class="fil15" d="M9759.47 6878.69l25.19 0 0 67.41c0,10.71 0.32,17.63 0.93,20.79 1.07,5.09 3.59,9.21 7.59,12.28 4.02,3.09 9.49,4.63 16.45,4.63 7.04,0 12.36,-1.45 15.95,-4.37 3.59,-2.93 5.73,-6.48 6.45,-10.74 0.72,-4.26 1.1,-11.29 1.1,-21.14l0 -68.85 25.19 0 0 65.41c0,14.94 -0.66,25.51 -2.02,31.67 -1.36,6.17 -3.85,11.38 -7.5,15.64 -3.62,4.26 -8.48,7.62 -14.57,10.13 -6.11,2.52 -14.04,3.79 -23.86,3.79 -11.84,0 -20.82,-1.36 -26.93,-4.11 -6.11,-2.75 -10.95,-6.32 -14.5,-10.72 -3.56,-4.4 -5.88,-8.98 -7.01,-13.81 -1.65,-7.12 -2.46,-17.66 -2.46,-31.59l0 -66.42z"/>
   <polygon id="_11" class="fil15" points="9887.01,7003.08 9887.01,6878.69 9924.74,6878.69 9947.04,6963.52 9969.07,6878.69 10006.89,6878.69 10006.89,7003.08 9983.61,7003.08 9983.52,6905.15 9959,7003.08 9934.79,7003.08 9910.38,6905.15 9910.3,7003.08 "/>
   <path id="_12" class="fil15" d="M10034.51 6878.69l25.19 0 0 67.41c0,10.71 0.32,17.63 0.93,20.79 1.07,5.09 3.59,9.21 7.59,12.28 4.02,3.09 9.49,4.63 16.45,4.63 7.04,0 12.36,-1.45 15.95,-4.37 3.59,-2.93 5.73,-6.48 6.45,-10.74 0.72,-4.26 1.1,-11.29 1.1,-21.14l0 -68.85 25.19 0 0 65.41c0,14.94 -0.66,25.51 -2.02,31.67 -1.36,6.17 -3.85,11.38 -7.5,15.64 -3.62,4.26 -8.48,7.62 -14.57,10.13 -6.11,2.52 -14.04,3.79 -23.86,3.79 -11.84,0 -20.82,-1.36 -26.93,-4.11 -6.11,-2.75 -10.95,-6.32 -14.5,-10.72 -3.56,-4.4 -5.88,-8.98 -7.01,-13.81 -1.65,-7.12 -2.46,-17.66 -2.46,-31.59l0 -66.42z"/>
   <polygon id="_13" class="fil15" points="10162.05,7003.08 10162.05,6878.69 10199.78,6878.69 10222.07,6963.52 10244.11,6878.69 10281.92,6878.69 10281.92,7003.08 10258.64,7003.08 10258.55,6905.15 10234.03,7003.08 10209.83,7003.08 10185.42,6905.15 10185.33,7003.08 "/>
   <path id="_14" class="fil15" d="M10357.81 6878.69l45.81 0c10.33,0 18.21,0.78 23.62,2.38 7.27,2.14 13.52,5.96 18.7,11.47 5.21,5.47 9.15,12.19 11.87,20.15 2.69,7.93 4.05,17.75 4.05,29.39 0,10.25 -1.27,19.05 -3.82,26.46 -3.1,9.06 -7.53,16.39 -13.29,21.98 -4.34,4.26 -10.22,7.56 -17.6,9.93 -5.53,1.77 -12.91,2.64 -22.18,2.64l-47.17 0 0 -124.39zm25.19 21.02l0 82.35 18.67 0c6.98,0 12.02,-0.41 15.12,-1.19 4.08,-1.01 7.44,-2.75 10.1,-5.18 2.69,-2.43 4.86,-6.43 6.54,-11.99 1.71,-5.56 2.55,-13.17 2.55,-22.79 0,-9.61 -0.84,-16.97 -2.55,-22.12 -1.68,-5.15 -4.05,-9.15 -7.09,-12.05 -3.04,-2.87 -6.89,-4.83 -11.58,-5.85 -3.47,-0.78 -10.33,-1.19 -20.53,-1.19l-11.23 0z"/>
   <path id="_15" class="fil15" d="M10597.75 7003.08l-27.13 0 -10.75 -28.32 -49.88 0 -10.34 28.32 -26.64 0 48.29 -124.39 26.61 0 49.83 124.39zm-46.04 -49.34l-17.29 -46.04 -16.79 46.04 34.08 0z"/>
   <polygon id="_16" class="fil15" points="10613.59,7003.08 10613.59,6878.69 10705.67,6878.69 10705.67,6899.71 10638.78,6899.71 10638.78,6927.33 10700.98,6927.33 10700.98,6948.35 10638.78,6948.35 10638.78,6982.06 10708.1,6982.06 10708.1,7003.08 "/>
   <path id="_17" class="fil15" d="M10731.9 7003.08l0 -124.39 52.9 0c13.29,0 22.96,1.13 28.98,3.36 6.05,2.23 10.86,6.19 14.48,11.9 3.62,5.74 5.44,12.25 5.44,19.6 0,9.35 -2.72,17.05 -8.2,23.14 -5.47,6.08 -13.64,9.9 -24.52,11.5 5.41,3.16 9.87,6.63 13.38,10.42 3.53,3.79 8.28,10.54 14.24,20.21l15.17 24.26 -30.02 0 -18.01 -27.16c-6.46,-9.65 -10.89,-15.72 -13.29,-18.24 -2.38,-2.49 -4.89,-4.23 -7.56,-5.15 -2.7,-0.93 -6.92,-1.39 -12.71,-1.39l-5.09 0 0 51.94 -25.19 0zm25.19 -71.75l18.59 0c12.05,0 19.55,-0.52 22.55,-1.53 2.98,-1.01 5.36,-2.78 7.04,-5.27 1.71,-2.49 2.55,-5.62 2.55,-9.35 0,-4.2 -1.13,-7.56 -3.36,-10.16 -2.23,-2.58 -5.38,-4.2 -9.44,-4.87 -2.05,-0.29 -8.17,-0.43 -18.33,-0.43l-19.6 0 0 31.62z"/>
   <path id="_18" class="fil15" d="M10971.84 7003.08l-27.13 0 -10.75 -28.32 -49.88 0 -10.34 28.32 -26.64 0 48.29 -124.39 26.61 0 49.83 124.39zm-46.04 -49.34l-17.29 -46.04 -16.79 46.04 34.08 0z"/>
   <polygon id="_19" class="fil15" points="10987.68,7003.08 10987.68,6878.69 11012.87,6878.69 11012.87,6927.68 11061.86,6927.68 11061.86,6878.69 11087.05,6878.69 11087.05,7003.08 11061.86,7003.08 11061.86,6948.7 11012.87,6948.7 11012.87,7003.08 "/>
   <polygon id="_20" class="fil15" points="11180.92,7003.08 11151.68,6878.69 11177.56,6878.69 11196.06,6964.13 11218.77,6878.69 11248.7,6878.69 11270.42,6965.58 11289.35,6878.69 11314.63,6878.69 11284.66,7003.08 11257.77,7003.08 11233.24,6910.07 11208.54,7003.08 "/>
   <path id="_21" class="fil15" d="M11432.71 7003.08l-27.13 0 -10.75 -28.32 -49.88 0 -10.34 28.32 -26.64 0 48.29 -124.39 26.61 0 49.83 124.39zm-46.04 -49.34l-17.29 -46.04 -16.79 46.04 34.08 0z"/>
   <polygon id="_22" class="fil15" points="11449.24,7003.08 11449.24,6879.73 11474.43,6879.73 11474.43,6982.06 11536.8,6982.06 11536.8,7003.08 "/>
   <polygon id="_23" class="fil15" points="11557.09,7003.08 11557.09,6878.69 11649.17,6878.69 11649.17,6899.71 11582.28,6899.71 11582.28,6927.33 11644.47,6927.33 11644.47,6948.35 11582.28,6948.35 11582.28,6982.06 11651.6,6982.06 11651.6,7003.08 "/>
   <path id="_24" class="fil15" d="M11675.4 6878.69l45.81 0c10.33,0 18.21,0.78 23.62,2.38 7.27,2.14 13.52,5.96 18.7,11.47 5.21,5.47 9.15,12.19 11.87,20.15 2.69,7.93 4.05,17.75 4.05,29.39 0,10.25 -1.27,19.05 -3.82,26.46 -3.1,9.06 -7.53,16.39 -13.29,21.98 -4.34,4.26 -10.22,7.56 -17.6,9.93 -5.53,1.77 -12.91,2.64 -22.18,2.64l-47.17 0 0 -124.39zm25.19 21.02l0 82.35 18.67 0c6.98,0 12.02,-0.41 15.12,-1.19 4.08,-1.01 7.44,-2.75 10.1,-5.18 2.69,-2.43 4.86,-6.43 6.54,-11.99 1.71,-5.56 2.55,-13.17 2.55,-22.79 0,-9.61 -0.84,-16.97 -2.55,-22.12 -1.68,-5.15 -4.05,-9.15 -7.09,-12.05 -3.04,-2.87 -6.89,-4.83 -11.58,-5.85 -3.47,-0.78 -10.33,-1.19 -20.53,-1.19l-11.23 0z"/>
  </g>
  <path class="fil1" d="M11654.42 7796.1l133.03 -205.6c-39.09,-108.33 -85.38,-215.95 -136.56,-319.44l-86.02 69.48 68.12 -105.27c-64.91,-127.78 -115.99,-208.29 -115.99,-208.29 0,0 -266.81,420.45 -355.95,865.6l170.71 263.84 -188.99 -152.65c-6.65,51.76 -10.15,104.14 -10.3,156.36 0,527.21 172.19,954.6 384.59,954.6 212.4,0 384.59,-427.39 384.59,-954.6 0,-163.44 -36.98,-334.44 -87.98,-492.62l-159.24 128.59z"/>
  <path class="fil1" d="M10953.92 7796.1l133.03 -205.6c-39.09,-108.33 -85.38,-215.95 -136.56,-319.44l-86.02 69.48 68.12 -105.27c-64.91,-127.78 -115.99,-208.29 -115.99,-208.29 0,0 -266.81,420.45 -355.95,865.6l170.71 263.84 -188.99 -152.65c-6.65,51.76 -10.16,104.14 -10.31,156.36 0,527.21 172.19,954.6 384.59,954.6 212.4,0 384.59,-427.39 384.59,-954.6 0,-163.44 -36.98,-334.44 -87.98,-492.62l-159.24 128.59z"/>
  <rect class="fil3" x="4180.99" y="5438.75" width="792.54" height="45.5"/>
  <rect class="fil3" x="4180.99" y="5604.7" width="1223.86" height="45.5"/>
  <rect class="fil3" x="4180.99" y="5761.06" width="997.42" height="45.5"/>
  <rect class="fil3" x="4180.99" y="5916.82" width="582.28" height="45.5"/>
  <rect class="fil3" x="4180.99" y="6072.58" width="878.8" height="45.5"/>
  <rect class="fil3" x="3819.77" y="5422.58" width="97.05" height="97.05"/>
  <rect class="fil3" x="3819.77" y="5578.93" width="97.05" height="97.05"/>
  <rect class="fil3" x="3819.77" y="5735.28" width="97.05" height="97.05"/>
  <rect class="fil3" x="3819.77" y="5891.63" width="97.05" height="97.05"/>
  <rect class="fil3" x="3819.77" y="6047.99" width="97.05" height="97.05"/>
  <path class="fil1" d="M6030.98 5352.63l-415.9 0c-14.01,-81.71 -21.29,-165 -21.29,-247.93 0,-82.94 7.28,-166.22 21.31,-247.91l415.88 -0.03c-23.17,80.52 -35.15,164.07 -35.15,247.94 0,83.88 11.98,167.43 35.19,247.93l-0.04 0.01z"/>
  <path class="fil3" d="M3004.78 6346.49l-171.1 -41.71c-0.17,0 -0.38,0 -0.55,0 -243.24,0 -440.49,-197.25 -440.49,-440.49 0,-29.25 2.96,-58.56 8.71,-87.23l0 0c0.01,-0.24 0.01,-0.53 0.01,-0.73 0,-317.65 257.41,-575.4 575.06,-575.76l-0.03 0c0.24,0 0.53,0 0.73,0 317.65,0 575.41,257.41 575.76,575.05l0 0c97,337.58 -206.84,654.05 -548.11,570.87z"/>
  <circle class="fil16" cx="3191.68" cy="5983.63" r="423.05"/>
  <path class="fil16" d="M2915.77 6204.36c0,0 -128.76,441.45 -202.33,478.23 -73.58,36.79 588.6,91.97 588.6,91.97 0,0 -18.39,-423.05 18.39,-459.84 36.79,-36.79 -404.66,-110.36 -404.66,-110.36z"/>
  <path class="fil2" d="M3577.95 8926.61c0,0 827.71,-73.58 938.08,202.33 110.36,275.91 -73.58,1912.93 -73.58,1912.93l-349.48 0 0 -1342.73c0,0 -1490.12,-423.57 -1490.12,-570.72 0,-147.15 975.1,-201.81 975.1,-201.81z"/>
  <path class="fil17" d="M4387.27 10968.31l183.94 73.58c0,0 220.73,-18.39 128.76,147.15 -53.31,97.31 -148.15,165.09 -257.5,183.94 -109.35,18.85 -349.48,128.76 -367.87,0 -18.39,-128.76 91.97,-386.27 91.97,-386.27l220.71 -18.4z"/>
  <path class="fil2" d="M3118.11 8926.61c0,0 827.71,-73.58 938.08,202.33 110.36,275.91 -73.58,1912.93 -73.58,1912.93l-349.48 0 0 -1342.73c0,0 -1057.75,-245.01 -1057.75,-392.16 0,-69.13 -72.08,-420.45 54.94,-494.47 143.35,-83.54 487.79,114.1 487.79,114.1z"/>
  <path class="fil17" d="M3927.43 10968.31l183.94 73.58c0,0 220.73,-18.39 128.76,147.15 -53.31,97.31 -148.15,165.09 -257.5,183.94 -109.35,18.85 -349.48,128.76 -367.87,0 -18.39,-128.76 91.97,-386.27 91.97,-386.27l220.71 -18.4z"/>
  <path class="fil2" d="M2731.84 6627.41l552.77 60.08c174.95,18.99 318,148.41 354.33,320.58l214.91 1017.25c0,0 73.58,1011.65 -73.58,1066.83 -147.15,55.18 -349.48,-220.73 -625.39,-183.94 -275.91,36.79 -634.58,119.56 -634.58,119.56 0,0 -56.96,-1810.81 -64.37,-1958.92 -14.83,-296.09 275.91,-441.44 275.91,-441.44z"/>
  <path class="fil16" d="M4041.2 8979.17l226.93 133.64c0,0 407.13,-58.41 394.42,84.68 -12.71,143.1 -457.11,115.45 -457.11,115.45l-273.48 -168.51 109.25 -165.26z"/>
  <circle class="fil3" cx="2370.53" cy="5366.28" r="273.27"/>
  <path class="fil3" d="M2622.68 5219.38c-0.1,-150.74 -122.38,-272.93 -273.14,-272.93 -18.07,0 -36.18,1.84 -53.89,5.37 36.46,-17.25 76.34,-26.18 116.69,-26.18 150.83,0 273.15,122.32 273.15,273.15 0,130.15 -91.91,242.27 -219.49,267.81 95.63,-45.02 156.7,-141.29 156.7,-247 0,-0.07 0,-0.13 0,-0.2l-0.01 -0.02z"/>
  <path class="fil3" d="M2857.12 5374.36l368.42 -67.83 283.33 177.58c125.37,78.53 201.55,216.21 201.55,364.17 0,18.47 -1.21,36.94 -3.57,55.25l-283.76 -71.92 -63.54 -159.33 -75.68 124.04 -395.68 509.2 -222.15 -141.47 -198.05 -310.37 389.14 -479.32z"/>
  <path class="fil2" d="M3160.51 6783.87l183.94 -91.97c0,0 386.27,55.18 459.84,312.69 73.58,257.51 404.66,2041.7 404.66,2041.7l-312.7 147.15 -441.45 -1085.23 -294.3 -1324.34z"/>
  <polygon class="fil18" points="3317.09,7507.67 3501.18,8222.23 3827.63,9024.75 3816.32,9052.53 3426.97,8235.64 "/>
  <polygon class="fil3" points="1943.5,11448.36 1878.58,11426 2507.49,9557.95 2598.4,9589.27 "/>
  <polygon class="fil3" points="4347.27,11448.36 4412.21,11426 3783.28,9557.95 3692.38,9589.27 "/>
  <polygon class="fil3" points="3018.35,11834.16 3087.02,11834.4 3108.36,9650.7 3012.22,9650.36 "/>
  <path class="fil1" d="M1784.54 8460.32l188.38 761.37c53.76,217.22 223.18,387.08 440.28,441.33l0 0c254.13,63.41 517.01,95.98 779.49,95.98 276.61,0 552.44,-36.1 819.63,-106.33l281.26 -74.18c163.42,-43.1 286.32,-183.46 297.95,-352.07 0.63,-8.96 1.01,-18.14 1.01,-27.23 0,-50.54 -11.08,-100.5 -32.4,-146.3 -1.11,-2.33 -2.22,-4.65 -3.33,-6.95 -74.7,-153.52 -228.57,-252.98 -399.21,-258.14l-297.95 -9.61 -1085.11 -480.75c0,0 -373.19,-189.56 -679.99,-210.78 -202.61,-14.01 -358.79,176.51 -310.01,373.66z"/>
  <rect class="fil3" x="7327.79" y="6065.45" width="1071.35" height="1455.94"/>
  <rect class="fil5" x="7451.41" y="6233.45" width="824.12" height="1119.96"/>
  <rect class="fil3" x="7775.76" y="6526.53" width="399.29" height="45.5"/>
  <rect class="fil3" x="7551.88" y="6501.35" width="97.05" height="97.05"/>
  <rect class="fil3" x="7775.76" y="6718.82" width="399.29" height="45.5"/>
  <rect class="fil3" x="7551.88" y="6693.64" width="97.05" height="97.05"/>
  <rect class="fil3" x="7775.76" y="6911.12" width="399.29" height="45.5"/>
  <rect class="fil3" x="7551.88" y="6885.93" width="97.05" height="97.05"/>
  <path class="fil6" d="M7863.47 6106.66l0 0c22.75,0 41.21,18.46 41.21,41.21l0 0c0,22.75 -18.46,41.21 -41.21,41.21l0 0c-22.75,0 -41.21,-18.46 -41.21,-41.21l0 0c0,-22.75 18.46,-41.21 41.21,-41.21z"/>
  <g id="_2339932635696">
   <path class="fil19" d="M11965.86 3329.61l0 -1322.7 761.33 0 0 596.2 182.88 0 0 -596.2 761.32 0 0 1907.86 -761.32 0 0 -596.2 -182.88 0 0 596.2 -1410.25 0 -62.04 -267.08 -268.97 0 -62.05 267.08 -1362.78 0 -8.62 -217.58 -54.57 217.58 -585.49 0 -54.91 -216.08 -8.55 216.08 -1362.79 0 -62.04 -267.08 -268.97 0 -62.05 267.08 -1344.68 0 -154.03 -349.38 0 349.38 -761.33 0 0 -1907.86 960.68 0c453.43,0 690.9,251.7 690.9,701.69 0,216.86 -51.24,435.13 -217.45,571.47l126.62 243.87 393.21 -1517.03 1005.22 0 311.41 1201.41 73.05 -1201.41 895.44 0 132.89 541.78 132.89 -541.78 895.44 0 73.05 1201.41 311.41 -1201.41 1005.22 0 342.85 1322.7zm-7942.12 -268.13l0 -1054.57 761.33 0 0 1907.86 -761.33 0 0 -463.94c-8.16,39.95 -19.27,79.17 -34.02,116.9 -31,79.3 -73.81,158.38 -135.85,217.78 -62.63,59.96 -143.6,96.71 -226.28,119.78 -73.01,20.38 -149.28,37.05 -224.98,42.87 -80.03,6.16 -161.61,7.07 -241.86,7.07 -226.77,0 -454.4,-21.29 -675.44,-73.07l-101.48 -23.77 113.01 -665.95 116.19 29.04c45.18,11.3 91.21,21.58 137.7,30.27 -65.67,-27.76 -125.65,-64.8 -173.18,-114.42 -117.42,-122.57 -153.56,-290.92 -153.56,-455.73 0,-193.97 32.58,-424.2 188.07,-558.68 151.58,-131.09 388.74,-156.51 581.06,-156.51 225.11,0 453.15,19.06 672.69,70.35l100.22 23.42 -100.54 643.42 -110.02 -17.75c-17.81,-2.87 -35.84,-5.73 -54.03,-8.5 65.55,28.26 125.56,64.99 173.99,112.94 77.86,77.08 124.63,170.12 148.31,271.17zm1570.64 -401.16l0 115.44 13.2 0c16.43,0 50.63,-0.62 75.26,-4.8l0 -105.85c-24.63,-4.18 -58.84,-4.79 -75.26,-4.79l-13.2 0z"/>
  </g>
  <path class="fil20" d="M2510.6 3774.2l75.54 -445.12c165.46,41.37 314.29,62.04 446.47,62.04 132.19,0 238.75,-5.39 319.68,-16.19l0 -134.88 -242.8 -21.58c-219.42,-19.79 -370.04,-72.39 -451.87,-157.82 -81.83,-85.42 -122.75,-211.77 -122.75,-379.03 0,-230.21 49.91,-388.48 149.72,-474.8 99.82,-86.33 269.33,-129.49 508.52,-129.49 239.2,0 455.02,22.48 647.46,67.44l-67.45 431.64c-167.26,-26.98 -301.24,-40.46 -401.96,-40.46 -100.71,0 -186.14,4.49 -256.28,13.48l0 132.19 194.24 18.88c235.6,23.38 398.36,79.58 488.29,168.61 89.92,89.02 134.88,212.67 134.88,370.94 0,113.3 -15.28,209.08 -45.86,287.31 -30.57,78.23 -66.99,137.59 -109.26,178.05 -42.26,40.47 -102.06,71.49 -179.4,93.08 -77.33,21.58 -145.22,34.62 -203.68,39.12 -58.45,4.5 -136.24,6.74 -233.35,6.74 -233.8,0 -450.52,-23.38 -650.15,-70.14z"/>
  <polygon id="_1_8" class="fil20" points="4134.63,3803.88 4134.63,2117.8 4674.18,2117.8 4674.18,3803.88 "/>
  <path id="_2_9" class="fil20" d="M6414.21 3803.88l-593.5 0 -221.22 -501.78 -116 0 0 501.78 -539.55 0 0 -1686.08 849.79 0c386.67,0 580.01,196.93 580.01,590.8 0,269.77 -83.63,447.82 -250.89,534.15l291.35 561.13zm-930.71 -1254.45l0 337.22 124.09 0c64.75,0 111.96,-6.74 141.63,-20.23 29.68,-13.48 44.51,-44.51 44.51,-93.07l0 -110.61c0,-48.56 -14.84,-79.58 -44.51,-93.07 -29.68,-13.49 -76.89,-20.23 -141.63,-20.23l-124.09 0z"/>
  <path id="_3_10" class="fil20" d="M7005.02 3803.88l-569.22 0 437.03 -1686.08 833.6 0 437.03 1686.08 -569.22 0 -62.04 -267.08 -445.13 0 -62.05 267.08zm269.77 -1168.12l-110.61 472.1 248.19 0 -107.91 -472.1 -29.68 0z"/>
  <polygon id="_4_11" class="fil20" points="8742.36,3803.88 8178.53,3803.88 8281.05,2117.8 8985.15,2117.8 9195.58,2975.68 9214.46,2975.68 9424.88,2117.8 10128.99,2117.8 10231.5,3803.88 9667.68,3803.88 9635.31,2986.46 9616.42,2986.46 9411.39,3803.88 8998.64,3803.88 8790.92,2986.46 8774.73,2986.46 "/>
  <path id="_5_12" class="fil20" d="M10835.79 3803.88l-569.22 0 437.03 -1686.08 833.6 0 437.03 1686.08 -569.22 0 -62.04 -267.08 -445.13 0 -62.05 267.08zm269.77 -1168.12l-110.61 472.1 248.19 0 -107.91 -472.1 -29.68 0z"/>
  <polygon id="_6_13" class="fil20" points="13020.96,3803.88 13020.96,3207.68 12616.3,3207.68 12616.3,3803.88 12076.75,3803.88 12076.75,2117.8 12616.3,2117.8 12616.3,2714 13020.96,2714 13020.96,2117.8 13560.5,2117.8 13560.5,3803.88 "/>
 </g>
</svg>
